<mxfile host="app.diagrams.net" modified="2022-06-21T15:38:17.465Z" agent="5.0 (Macintosh)" etag="XF02VzgZdepgCM9cuFKv" version="20.0.1" type="github">
  <diagram id="SQ0zQWHfP-8rNXuMUe8Z" name="Page-1">
    <mxGraphModel dx="1769" dy="412" grid="1" gridSize="10" guides="1" tooltips="1" connect="1" arrows="1" fold="1" page="1" pageScale="1" pageWidth="827" pageHeight="1169" math="0" shadow="0">
      <root>
        <mxCell id="0" />
        <mxCell id="1" parent="0" />
        <mxCell id="f8iXwVYY4Mwev2Gr7xI0-1" value="Каталог" style="rounded=0;whiteSpace=wrap;html=1;" vertex="1" parent="1">
          <mxGeometry x="-80" y="350" width="120" height="60" as="geometry" />
        </mxCell>
        <mxCell id="f8iXwVYY4Mwev2Gr7xI0-2" value="" style="ellipse;whiteSpace=wrap;html=1;fillColor=#000000;" vertex="1" parent="1">
          <mxGeometry x="260" y="30" width="20" height="20" as="geometry" />
        </mxCell>
        <mxCell id="f8iXwVYY4Mwev2Gr7xI0-3" value="" style="endArrow=classic;html=1;rounded=0;exitX=0.5;exitY=1;exitDx=0;exitDy=0;" edge="1" parent="1" source="f8iXwVYY4Mwev2Gr7xI0-2">
          <mxGeometry width="50" height="50" relative="1" as="geometry">
            <mxPoint x="390" y="260" as="sourcePoint" />
            <mxPoint x="270" y="230" as="targetPoint" />
            <Array as="points" />
          </mxGeometry>
        </mxCell>
        <mxCell id="f8iXwVYY4Mwev2Gr7xI0-4" value="Пользователь пришел на сайт" style="text;html=1;align=center;verticalAlign=middle;resizable=0;points=[];autosize=1;strokeColor=none;fillColor=none;rotation=90;" vertex="1" parent="1">
          <mxGeometry x="200" y="120" width="190" height="20" as="geometry" />
        </mxCell>
        <mxCell id="f8iXwVYY4Mwev2Gr7xI0-6" value="Карточка товара" style="rounded=0;whiteSpace=wrap;html=1;fillColor=none;" vertex="1" parent="1">
          <mxGeometry x="-520" y="650" width="120" height="60" as="geometry" />
        </mxCell>
        <mxCell id="f8iXwVYY4Mwev2Gr7xI0-7" value="Корзина" style="rounded=0;whiteSpace=wrap;html=1;fillColor=none;" vertex="1" parent="1">
          <mxGeometry x="320" y="350" width="120" height="60" as="geometry" />
        </mxCell>
        <mxCell id="f8iXwVYY4Mwev2Gr7xI0-9" value="Оформление заказа" style="rounded=0;whiteSpace=wrap;html=1;fillColor=none;" vertex="1" parent="1">
          <mxGeometry x="492.5" y="350" width="120" height="60" as="geometry" />
        </mxCell>
        <mxCell id="f8iXwVYY4Mwev2Gr7xI0-10" value="Мой аккаунт" style="rounded=0;whiteSpace=wrap;html=1;" vertex="1" parent="1">
          <mxGeometry x="90" y="350" width="120" height="60" as="geometry" />
        </mxCell>
        <mxCell id="f8iXwVYY4Mwev2Gr7xI0-12" value="" style="ellipse;whiteSpace=wrap;html=1;aspect=fixed;fillColor=none;" vertex="1" parent="1">
          <mxGeometry x="590" y="430" width="30" height="30" as="geometry" />
        </mxCell>
        <mxCell id="f8iXwVYY4Mwev2Gr7xI0-13" value="" style="ellipse;whiteSpace=wrap;html=1;aspect=fixed;fillColor=#000000;" vertex="1" parent="1">
          <mxGeometry x="597.5" y="437.5" width="15" height="15" as="geometry" />
        </mxCell>
        <mxCell id="f8iXwVYY4Mwev2Gr7xI0-16" value="Главная" style="rounded=0;whiteSpace=wrap;html=1;fillColor=none;" vertex="1" parent="1">
          <mxGeometry x="210" y="230" width="120" height="60" as="geometry" />
        </mxCell>
        <mxCell id="f8iXwVYY4Mwev2Gr7xI0-17" value="Распродажа" style="rounded=0;whiteSpace=wrap;html=1;fillColor=none;" vertex="1" parent="1">
          <mxGeometry x="-680" y="420" width="120" height="60" as="geometry" />
        </mxCell>
        <mxCell id="f8iXwVYY4Mwev2Gr7xI0-24" value="" style="endArrow=classic;startArrow=classic;html=1;rounded=0;entryX=0.5;entryY=1;entryDx=0;entryDy=0;exitX=0.6;exitY=0;exitDx=0;exitDy=0;exitPerimeter=0;" edge="1" parent="1" source="f8iXwVYY4Mwev2Gr7xI0-1" target="f8iXwVYY4Mwev2Gr7xI0-16">
          <mxGeometry width="50" height="50" relative="1" as="geometry">
            <mxPoint x="290" y="500" as="sourcePoint" />
            <mxPoint x="340" y="450" as="targetPoint" />
          </mxGeometry>
        </mxCell>
        <mxCell id="f8iXwVYY4Mwev2Gr7xI0-25" value="" style="endArrow=classic;startArrow=classic;html=1;rounded=0;entryX=0.5;entryY=1;entryDx=0;entryDy=0;exitX=0.625;exitY=-0.017;exitDx=0;exitDy=0;exitPerimeter=0;" edge="1" parent="1" source="f8iXwVYY4Mwev2Gr7xI0-10" target="f8iXwVYY4Mwev2Gr7xI0-16">
          <mxGeometry width="50" height="50" relative="1" as="geometry">
            <mxPoint x="290" y="500" as="sourcePoint" />
            <mxPoint x="340" y="450" as="targetPoint" />
          </mxGeometry>
        </mxCell>
        <mxCell id="f8iXwVYY4Mwev2Gr7xI0-26" value="" style="endArrow=classic;startArrow=classic;html=1;rounded=0;exitX=0.5;exitY=0;exitDx=0;exitDy=0;" edge="1" parent="1" source="f8iXwVYY4Mwev2Gr7xI0-7">
          <mxGeometry width="50" height="50" relative="1" as="geometry">
            <mxPoint x="290" y="500" as="sourcePoint" />
            <mxPoint x="280" y="290" as="targetPoint" />
          </mxGeometry>
        </mxCell>
        <mxCell id="f8iXwVYY4Mwev2Gr7xI0-27" value="" style="endArrow=classic;startArrow=classic;html=1;rounded=0;entryX=0.617;entryY=1.033;entryDx=0;entryDy=0;entryPerimeter=0;exitX=0.421;exitY=-0.067;exitDx=0;exitDy=0;exitPerimeter=0;" edge="1" parent="1" source="f8iXwVYY4Mwev2Gr7xI0-9" target="f8iXwVYY4Mwev2Gr7xI0-16">
          <mxGeometry width="50" height="50" relative="1" as="geometry">
            <mxPoint x="290" y="500" as="sourcePoint" />
            <mxPoint x="340" y="450" as="targetPoint" />
          </mxGeometry>
        </mxCell>
        <mxCell id="f8iXwVYY4Mwev2Gr7xI0-28" value="" style="endArrow=classic;startArrow=classic;html=1;rounded=0;exitX=1;exitY=0.633;exitDx=0;exitDy=0;exitPerimeter=0;" edge="1" parent="1" source="f8iXwVYY4Mwev2Gr7xI0-1">
          <mxGeometry width="50" height="50" relative="1" as="geometry">
            <mxPoint x="290" y="440" as="sourcePoint" />
            <mxPoint x="90" y="388" as="targetPoint" />
          </mxGeometry>
        </mxCell>
        <mxCell id="f8iXwVYY4Mwev2Gr7xI0-29" value="" style="endArrow=classic;startArrow=classic;html=1;rounded=0;exitX=1;exitY=0.633;exitDx=0;exitDy=0;exitPerimeter=0;entryX=0;entryY=0.65;entryDx=0;entryDy=0;entryPerimeter=0;" edge="1" parent="1" source="f8iXwVYY4Mwev2Gr7xI0-10" target="f8iXwVYY4Mwev2Gr7xI0-7">
          <mxGeometry width="50" height="50" relative="1" as="geometry">
            <mxPoint x="50" y="397.98" as="sourcePoint" />
            <mxPoint x="100" y="398" as="targetPoint" />
          </mxGeometry>
        </mxCell>
        <mxCell id="f8iXwVYY4Mwev2Gr7xI0-30" value="" style="endArrow=classic;startArrow=classic;html=1;rounded=0;entryX=0;entryY=0.75;entryDx=0;entryDy=0;exitX=1;exitY=0.75;exitDx=0;exitDy=0;" edge="1" parent="1" source="f8iXwVYY4Mwev2Gr7xI0-7" target="f8iXwVYY4Mwev2Gr7xI0-9">
          <mxGeometry width="50" height="50" relative="1" as="geometry">
            <mxPoint x="290" y="440" as="sourcePoint" />
            <mxPoint x="340" y="390" as="targetPoint" />
          </mxGeometry>
        </mxCell>
        <mxCell id="f8iXwVYY4Mwev2Gr7xI0-31" value="" style="endArrow=classic;html=1;rounded=0;exitX=-0.008;exitY=0.15;exitDx=0;exitDy=0;entryX=0.325;entryY=-0.05;entryDx=0;entryDy=0;entryPerimeter=0;exitPerimeter=0;" edge="1" parent="1" source="f8iXwVYY4Mwev2Gr7xI0-16" target="f8iXwVYY4Mwev2Gr7xI0-17">
          <mxGeometry width="50" height="50" relative="1" as="geometry">
            <mxPoint x="-40" y="380" as="sourcePoint" />
            <mxPoint x="-520" y="420" as="targetPoint" />
            <Array as="points">
              <mxPoint x="-641" y="240" />
            </Array>
          </mxGeometry>
        </mxCell>
        <mxCell id="f8iXwVYY4Mwev2Gr7xI0-32" value="" style="endArrow=classic;html=1;rounded=0;entryX=0.5;entryY=0;entryDx=0;entryDy=0;exitX=0.5;exitY=1;exitDx=0;exitDy=0;" edge="1" parent="1" source="f8iXwVYY4Mwev2Gr7xI0-17" target="f8iXwVYY4Mwev2Gr7xI0-6">
          <mxGeometry width="50" height="50" relative="1" as="geometry">
            <mxPoint x="-40" y="660" as="sourcePoint" />
            <mxPoint x="10" y="610" as="targetPoint" />
          </mxGeometry>
        </mxCell>
        <mxCell id="f8iXwVYY4Mwev2Gr7xI0-34" value="Новые поступления" style="rounded=0;whiteSpace=wrap;html=1;fillColor=none;" vertex="1" parent="1">
          <mxGeometry x="-550" y="420" width="120" height="60" as="geometry" />
        </mxCell>
        <mxCell id="f8iXwVYY4Mwev2Gr7xI0-35" value="" style="endArrow=classic;html=1;rounded=0;exitX=0.5;exitY=1;exitDx=0;exitDy=0;entryX=0.6;entryY=-0.083;entryDx=0;entryDy=0;entryPerimeter=0;" edge="1" parent="1" source="f8iXwVYY4Mwev2Gr7xI0-34" target="f8iXwVYY4Mwev2Gr7xI0-6">
          <mxGeometry width="50" height="50" relative="1" as="geometry">
            <mxPoint x="30" y="560" as="sourcePoint" />
            <mxPoint x="80" y="510" as="targetPoint" />
          </mxGeometry>
        </mxCell>
        <mxCell id="f8iXwVYY4Mwev2Gr7xI0-37" value="Просмотренные товары" style="rounded=0;whiteSpace=wrap;html=1;fillColor=none;" vertex="1" parent="1">
          <mxGeometry x="-413" y="420" width="120" height="60" as="geometry" />
        </mxCell>
        <mxCell id="f8iXwVYY4Mwev2Gr7xI0-38" value="Подвал" style="rounded=0;whiteSpace=wrap;html=1;fillColor=none;" vertex="1" parent="1">
          <mxGeometry x="-280" y="420" width="120" height="60" as="geometry" />
        </mxCell>
        <mxCell id="f8iXwVYY4Mwev2Gr7xI0-39" value="" style="endArrow=classic;html=1;rounded=0;entryX=0.425;entryY=-0.05;entryDx=0;entryDy=0;entryPerimeter=0;" edge="1" parent="1" target="f8iXwVYY4Mwev2Gr7xI0-34">
          <mxGeometry width="50" height="50" relative="1" as="geometry">
            <mxPoint x="210" y="250" as="sourcePoint" />
            <mxPoint x="-180" y="440" as="targetPoint" />
            <Array as="points">
              <mxPoint x="-500" y="250" />
            </Array>
          </mxGeometry>
        </mxCell>
        <mxCell id="f8iXwVYY4Mwev2Gr7xI0-40" value="" style="endArrow=classic;html=1;rounded=0;entryX=0.45;entryY=-0.05;entryDx=0;entryDy=0;entryPerimeter=0;exitX=-0.025;exitY=0.617;exitDx=0;exitDy=0;exitPerimeter=0;" edge="1" parent="1" source="f8iXwVYY4Mwev2Gr7xI0-16" target="f8iXwVYY4Mwev2Gr7xI0-37">
          <mxGeometry width="50" height="50" relative="1" as="geometry">
            <mxPoint x="-230" y="410" as="sourcePoint" />
            <mxPoint x="-180" y="360" as="targetPoint" />
            <Array as="points">
              <mxPoint x="-360" y="270" />
            </Array>
          </mxGeometry>
        </mxCell>
        <mxCell id="f8iXwVYY4Mwev2Gr7xI0-41" value="" style="endArrow=classic;html=1;rounded=0;entryX=0.567;entryY=-0.067;entryDx=0;entryDy=0;entryPerimeter=0;exitX=0;exitY=0.883;exitDx=0;exitDy=0;exitPerimeter=0;" edge="1" parent="1" source="f8iXwVYY4Mwev2Gr7xI0-16" target="f8iXwVYY4Mwev2Gr7xI0-38">
          <mxGeometry width="50" height="50" relative="1" as="geometry">
            <mxPoint x="-210" y="290" as="sourcePoint" />
            <mxPoint x="-180" y="360" as="targetPoint" />
            <Array as="points">
              <mxPoint x="-212" y="290" />
            </Array>
          </mxGeometry>
        </mxCell>
        <mxCell id="f8iXwVYY4Mwev2Gr7xI0-42" value="" style="endArrow=classic;html=1;rounded=0;entryX=0.75;entryY=0;entryDx=0;entryDy=0;exitX=0.5;exitY=1;exitDx=0;exitDy=0;" edge="1" parent="1" source="f8iXwVYY4Mwev2Gr7xI0-37" target="f8iXwVYY4Mwev2Gr7xI0-6">
          <mxGeometry width="50" height="50" relative="1" as="geometry">
            <mxPoint x="-230" y="560" as="sourcePoint" />
            <mxPoint x="-180" y="510" as="targetPoint" />
          </mxGeometry>
        </mxCell>
      </root>
    </mxGraphModel>
  </diagram>
</mxfile>
